<svg xmlns="http://www.w3.org/2000/svg" width="42" height="38" viewBox="0 0 42 38">
    <g fill="none" fill-rule="evenodd">
        <path fill="#E5E7FD" d="M6.435 5.614c0-1.15-.945-2.083-2.112-2.083-1.166 0-2.11.932-2.11 2.083v29.167c0 1.15.944 2.083 2.11 2.083 1.167 0 2.112-.932 2.112-2.083V5.614z"/>
        <path stroke="#28CC8B" stroke-linecap="round" stroke-linejoin="round" stroke-width="3" d="M14.244 20.75l-3.377 3.333 3.377 3.334M27.756 20.75l3.377 3.333-3.377 3.334M19.311 30.75l3.378-13.333"/>
        <path stroke="#3964F9" stroke-linecap="round" stroke-linejoin="round" stroke-width="3" d="M7.489 7.417h1.689M14.244 7.417h1.69M27.756 7.417h6.755M7.068 12.417h32.51M6.18 2.417h29.64c2.075 0 3.758 1.66 3.758 3.708v25.917c0 2.048-1.683 3.708-3.759 3.708H6.18c-2.075 0-3.757-1.66-3.757-3.708V6.125c0-2.048 1.682-3.708 3.757-3.708z"/>
    </g>
</svg>
